<?xml version="1.0" standalone="no"?><!DOCTYPE svg PUBLIC "-//W3C//DTD SVG 1.1//EN" "http://www.w3.org/Graphics/SVG/1.1/DTD/svg11.dtd"><svg t="1621607368815" class="icon" viewBox="0 0 1024 1024" version="1.1" xmlns="http://www.w3.org/2000/svg" p-id="39116" xmlns:xlink="http://www.w3.org/1999/xlink" width="200" height="200"><defs><style type="text/css"></style></defs><path d="M604.992 131.008c-25.728 0-52.48 8.736-72.992 26.976v1.024L531.008 160 156.992 531.008c-38.72 38.72-38.496 101.856-1.984 142.976l0.992 1.024h0.992l192 192c38.752 38.72 101.888 38.496 143.008 1.984v-0.992L864 496c40.512-40.512 41.76-105.28 3.008-144l-192-192a97.888 97.888 0 0 0-70.016-28.992z m-0.992 64.992c10.24 0 19.744 2.752 26.016 8.992l192 192c12.352 12.384 14.08 36.896-3.008 54.016l-161.024 160.992-244.992-244.992 162.016-160.992 0.992-1.024c8.128-6.72 18.24-8.992 28-8.992z m-236.992 216.992l244.992 244.992-163.008 163.008c-0.352 0.256-0.64 0.768-0.992 1.024-16.512 13.76-41.888 12.096-54.016 0L203.04 632c-0.512-0.64-0.512-1.376-1.024-2.016-13.12-16.48-12-41.984 0-53.984z" p-id="39117" fill="#548235"></path></svg>