<?xml version="1.0" standalone="no"?><!DOCTYPE svg PUBLIC "-//W3C//DTD SVG 1.1//EN" "http://www.w3.org/Graphics/SVG/1.1/DTD/svg11.dtd"><svg t="1621607314296" class="icon" viewBox="0 0 1024 1024" version="1.1" xmlns="http://www.w3.org/2000/svg" p-id="38929" xmlns:xlink="http://www.w3.org/1999/xlink" width="200" height="200"><defs><style type="text/css"></style></defs><path d="M448 128c-35.36 0-64 28.64-64 64v2.016L221.984 296A64.288 64.288 0 0 0 192 288c-35.36 0-64 28.64-64 64 0 23.616 12.864 43.872 32 55.008V776.96c-19.136 11.136-32 31.36-32 55.008 0 35.36 28.64 64 64 64 23.616 0 43.872-12.864 55.008-32H648.96c11.136 19.136 31.36 32 55.008 32 35.36 0 64-28.64 64-64 0-12.736-3.52-24.992-10.016-35.008L836 640a64.16 64.16 0 0 0 8-127.008l-60.992-182.976C793.12 318.624 800 304.352 800 288c0-35.36-28.64-64-64-64-16.384 0-30.624 6.88-42.016 16.992L511.04 179.008A64.384 64.384 0 0 0 448 128z m42.016 112l182.976 60c4.896 25.76 25.28 46.112 51.008 51.008l60.992 181.984A63.68 63.68 0 0 0 768 576c0 13.248 4.128 25.76 11.008 36L700 768a63.616 63.616 0 0 0-51.008 32H247.04A63.392 63.392 0 0 0 224 776.992V407.04c19.136-11.136 32-31.36 32-55.008v-2.016l162.016-101.984c8.96 4.736 19.104 8 29.984 8 16.128 0 30.72-6.112 42.016-16z" p-id="38930" fill="#548235"></path></svg>