<?xml version="1.0" standalone="no"?><!DOCTYPE svg PUBLIC "-//W3C//DTD SVG 1.1//EN" "http://www.w3.org/Graphics/SVG/1.1/DTD/svg11.dtd"><svg t="1621607539796" class="icon" viewBox="0 0 1024 1024" version="1.1" xmlns="http://www.w3.org/2000/svg" p-id="39490" xmlns:xlink="http://www.w3.org/1999/xlink" width="200" height="200"><defs><style type="text/css"></style></defs><path d="M512 94.016L148.992 225.952 128 234.016v489.024l16.992 8.992 352 192 15.008 8 15.008-8 352-192 16.992-8.992V233.984l-20.992-8z m0 67.968l268 97.024L512 380.992 244 259.008zM512 224c-35.36 0-64 14.4-64 32s28.64 32 64 32 64-14.4 64-32-28.64-32-64-32zM192 304.992l288 131.008v406.016l-288-157.024z m640 0v380l-288 157.024V435.968zM404.992 448c-11.84 0-20.992 11.36-20.992 28 0 21.376 11.36 43.52 28 52.992 4.736 2.368 10.24 2.016 15.008 2.016 7.104 0 11.232-2.24 16-7.008 2.368-4.736 4.992-11.52 4.992-20.992 0-21.376-14.4-43.52-31.008-52.992-4.736-2.4-7.232-2.016-12-2.016z m236 32a30.272 30.272 0 0 0-8 3.008c-19.52 8.352-36 36-36 60.992 0 8.384-0.64 16.384 5.024 22.016 5.6 5.6 11.616 8.96 20 8.96 5.6 0 11.36-0.224 16.96-2.976 19.52-11.136 33.024-36.736 33.024-59.008 0-19.52-8.256-32.992-24.992-32.992-1.376 0-3.648-0.384-6.016 0z m-316.992 40.992c-11.872 0-20.992 11.392-20.992 28 0 21.376 11.36 42.496 28 52 4.736 2.368 9.248 3.008 13.984 3.008 7.136 0 12.256-2.24 16.992-7.008 2.4-4.736 5.024-12.48 5.024-21.984 0-21.376-14.4-42.496-31.008-52-4.736-2.368-7.264-2.016-12-2.016z m428.992 37.024c-2.368 0.352-5.248 0.608-8 1.984-19.52 8.384-36 36.992-36 62.016 0 8.352 0.384 16.352 6.016 21.984 5.632 5.632 10.624 8 18.976 8 5.632 0 11.392 0.736 17.024-2.016 19.52-11.104 32.992-36.736 32.992-58.976 0-19.52-8.256-33.024-24.992-33.024-1.376 0-3.648-0.352-6.016 0z m-508 30.976c-11.84 0-20.992 11.392-20.992 28 0 21.376 11.36 43.52 28 53.024 4.736 2.368 10.24 1.984 15.008 1.984 7.104 0 11.232-2.24 16-7.008 2.368-4.736 4.992-11.52 4.992-20.992 0-21.376-14.4-43.52-31.008-52.992-4.736-2.368-7.232-2.016-12-2.016z" p-id="39491" fill="#548235"></path></svg>