<?xml version="1.0" standalone="no"?><!DOCTYPE svg PUBLIC "-//W3C//DTD SVG 1.1//EN" "http://www.w3.org/Graphics/SVG/1.1/DTD/svg11.dtd"><svg t="1632464494060" class="icon" viewBox="0 0 1024 1024" version="1.1" xmlns="http://www.w3.org/2000/svg" p-id="8621" xmlns:xlink="http://www.w3.org/1999/xlink" width="128" height="128"><defs><style type="text/css"></style></defs><path d="M291.3888 489.216a132.48 132.48 0 1 1 0.064-264.96 132.48 132.48 0 0 1-0.064 264.96z m-132.48 335.488V607.936a176.064 176.064 0 0 1 132.48-59.84c46.976 0 89.664 18.368 121.28 48.32a454.144 454.144 0 0 1 452.48-282.88v511.168H158.9728zM82.4928 295.168a41.216 41.216 0 1 1-82.368 0C0.0608 252.16 10.3008 210.56 29.7568 173.12a41.152 41.152 0 1 1 73.088 38.08 181.632 181.632 0 0 0-20.416 83.968z m102.976-163.84A41.152 41.152 0 1 1 150.0768 56.832 259.072 259.072 0 0 1 278.9728 32.704a41.216 41.216 0 0 1-5.696 82.304 175.68 175.68 0 0 0-87.872 16.384z m216.32 17.088a41.28 41.28 0 0 1 42.368-70.656 289.28 289.28 0 0 1 89.216 85.312 41.28 41.28 0 0 1-67.84 46.72c-17.28-25.024-38.4-46.08-63.808-61.376z m172.16 123.52a41.152 41.152 0 1 1-49.856-65.728 475.392 475.392 0 0 1 100.096-58.56 41.152 41.152 0 1 1 32.576 75.776 392.96 392.96 0 0 0-82.816 48.512z m212.992-81.984a41.216 41.216 0 0 1-9.728-81.92c31.936-3.776 65.792-5.568 102.4-5.568h5.12a41.216 41.216 0 0 1-0.192 82.432h-4.928c-33.472 0-64.128 1.664-92.672 5.056z m154.816 17.664a41.216 41.216 0 1 1 82.368 0v106.048a41.216 41.216 0 1 1-82.368 0V207.616z m0 249.6a41.216 41.216 0 1 1 82.368 0v106.048a41.216 41.216 0 1 1-82.368 0V457.216z m0 256a41.216 41.216 0 1 1 82.368 0v106.048a41.216 41.216 0 1 1-82.368 0v-106.048z m4.352 196.352a41.216 41.216 0 0 1 0 82.432h-105.92a41.216 41.216 0 0 1 0-82.432h105.92z m-247.168 0a41.216 41.216 0 0 1 0 82.432H592.9568a41.216 41.216 0 0 1 0-82.432h105.92z m-247.168 0a41.216 41.216 0 0 1 0 82.432H345.7888a41.216 41.216 0 0 1 0-82.432h105.92z m-247.168 0a41.216 41.216 0 0 1 0 82.432H98.6208a41.216 41.216 0 0 1 0-82.432h105.92zM82.4288 825.6A41.216 41.216 0 1 1 0.0608 825.6v-106.048a41.216 41.216 0 1 1 82.368 0v106.048z m0-249.6A41.216 41.216 0 1 1 0.0608 576V470.016a41.216 41.216 0 1 1 82.368 0v106.048z m0-248.576a41.216 41.216 0 1 1-82.368 0v-23.872a41.216 41.216 0 1 1 82.368 0v23.872z" fill="#548235" p-id="8622" data-spm-anchor-id="a313x.7781069.0.i16" class="selected"></path></svg>