<?xml version="1.0" standalone="no"?><!DOCTYPE svg PUBLIC "-//W3C//DTD SVG 1.1//EN" "http://www.w3.org/Graphics/SVG/1.1/DTD/svg11.dtd"><svg t="1621606142680" class="icon" viewBox="0 0 1024 1024" version="1.1" xmlns="http://www.w3.org/2000/svg" p-id="18655" xmlns:xlink="http://www.w3.org/1999/xlink" width="200" height="200"><defs><style type="text/css"></style></defs><path d="M512 64c-44.256 0-80.992 31.008-92 72C408.736 131.36 396.864 128 384 128c-52.64 0-96 43.36-96 96v344l-28-28a96.736 96.736 0 0 0-136 0 96.736 96.736 0 0 0 0 136l216.992 216.992C378.624 930.496 430.624 960 492 960H640c123.36 0 224-100.64 224-224V352c0-52.64-43.36-96-96-96a94.4 94.4 0 0 0-32 6.016V224c0-52.64-43.36-96-96-96-12.864 0-24.736 3.36-36 8C592.992 95.008 556.256 64 512 64z m0 64c18.112 0 32 13.888 32 32v320h64V224c0-18.112 13.888-32 32-32 18.112 0 32 13.888 32 32v256h64v-128c0-18.112 13.888-32 32-32 18.112 0 32 13.888 32 32v384c0 88.736-71.264 160-160 160h-148c-40.736 0-75.744-19.872-104.992-48.992l-218.016-216a32.448 32.448 0 0 1 0-46.016 32.448 32.448 0 0 1 46.016 0l81.984 83.008L352 723.008V224c0-18.112 13.888-32 32-32 18.112 0 32 13.888 32 32v256h64V160c0-18.112 13.888-32 32-32z" p-id="18656" fill="#548235"></path></svg>