<?xml version="1.0" standalone="no"?><!DOCTYPE svg PUBLIC "-//W3C//DTD SVG 1.1//EN" "http://www.w3.org/Graphics/SVG/1.1/DTD/svg11.dtd"><svg t="1631608141807" class="icon" viewBox="0 0 1024 1024" version="1.1" xmlns="http://www.w3.org/2000/svg" p-id="53038" xmlns:xlink="http://www.w3.org/1999/xlink" width="200" height="200"><defs><style type="text/css"></style></defs><path d="M480 160c-41.376 0-76.64 27.008-90.016 64H128v64h262.016c13.344 36.992 48.608 64 89.984 64s76.64-27.008 90.016-64H896V224H569.984C556.64 187.008 521.408 160 480 160z m0 64c18.016 0 32 14.016 32 32 0 18.016-14.016 32-32 32-18.016 0-32-14.016-32-32 0-18.016 14.016-32 32-32z m224 192c-41.376 0-76.64 27.008-90.016 64H128v64h486.016c13.344 36.992 48.608 64 89.984 64s76.64-27.008 90.016-64H896v-64h-102.016c-13.344-36.992-48.608-64-89.984-64z m0 64c18.016 0 32 14.016 32 32 0 18.016-14.016 32-32 32-18.016 0-32-14.016-32-32 0-18.016 14.016-32 32-32z m-352 192c-41.376 0-76.64 27.008-90.016 64H128v64h134.016c13.344 36.992 48.608 64 89.984 64s76.64-27.008 90.016-64H896v-64H441.984c-13.344-36.992-48.608-64-89.984-64z m0 64c18.016 0 32 14.016 32 32 0 18.016-14.016 32-32 32-18.016 0-32-14.016-32-32 0-18.016 14.016-32 32-32z" p-id="53039" fill="#548235"></path></svg>