<?xml version="1.0" standalone="no"?><!DOCTYPE svg PUBLIC "-//W3C//DTD SVG 1.1//EN" "http://www.w3.org/Graphics/SVG/1.1/DTD/svg11.dtd"><svg t="1621607964079" class="icon" viewBox="0 0 1024 1024" version="1.1" xmlns="http://www.w3.org/2000/svg" p-id="63529" xmlns:xlink="http://www.w3.org/1999/xlink" width="200" height="200"><defs><style type="text/css"></style></defs><path d="M160 160v224h64v256H160v224h224v-64h256v64h224v-224h-64v-256h64V160h-224v64h-256V160H160z m64 64h96v96H224V224z m480 0h96v96h-96V224zM384 288h256v96h96v256h-96v96h-256v-96H288v-256h96V288zM224 704h96v96H224v-96z m480 0h96v96h-96v-96z" p-id="63530" fill="#548235"></path></svg>