<?xml version="1.0" standalone="no"?><!DOCTYPE svg PUBLIC "-//W3C//DTD SVG 1.1//EN" "http://www.w3.org/Graphics/SVG/1.1/DTD/svg11.dtd"><svg t="1621606083458" class="icon" viewBox="0 0 1024 1024" version="1.1" xmlns="http://www.w3.org/2000/svg" p-id="18468" xmlns:xlink="http://www.w3.org/1999/xlink" width="200" height="200"><defs><style type="text/css"></style></defs><path d="M608 96C431.616 96 288 239.616 288 416c0 76.64 26.88 146.88 72 202.016L104.992 872.96 151.04 919.04l254.976-255.008A317.504 317.504 0 0 0 608 736c176.384 0 320-143.616 320-320S784.384 96 608 96z m0 64c141.76 0 256 114.24 256 256s-114.24 256-256 256-256-114.24-256-256 114.24-256 256-256z m-128 224v64h256v-64z" p-id="18469" fill="#548235"></path></svg>